<?xml version="1.0" encoding="UTF-8"?>
<svg width="80px" height="80px" viewBox="0 0 80 80" version="1.1" xmlns="http://www.w3.org/2000/svg" xmlns:xlink="http://www.w3.org/1999/xlink">
    <!-- Generator: Sketch 43.1 (39012) - http://www.bohemiancoding.com/sketch -->
    <title>Page 1 Copy</title>
    <desc>Created with Sketch.</desc>
    <defs></defs>
    <g id="Page-1" stroke="none" stroke-width="1" fill="none" fill-rule="evenodd">
        <g id="icon点击" transform="translate(-318.000000, -250.000000)" fill="#000000">
            <path d="M372.29688,275.70312 C371.77604,275.23437 371.17709,275 370.5,275 C369.82291,275 369.22396,275.23437 368.70312,275.70312 L358,286.48438 L347.375,275.85938 C346.90625,275.39062 346.32032,275.15625 345.61719,275.15625 C344.91406,275.15625 344.32813,275.39062 343.85938,275.85938 C343.39062,276.32813 343.15625,276.91406 343.15625,277.61719 C343.15625,278.32032 343.39062,278.90625 343.85938,279.375 L354.48438,290 L343.78125,300.625 C343.3125,301.14584 343.07812,301.74479 343.07812,302.42188 C343.07812,303.09896 343.3125,303.69791 343.78125,304.21875 C344.30209,304.6875 344.90104,304.92188 345.57812,304.92188 C346.25521,304.92188 346.85416,304.6875 347.375,304.21875 L358,293.51562 L368.625,304.14062 C369.09375,304.60938 369.67968,304.84375 370.38281,304.84375 C371.08594,304.84375 371.67187,304.60938 372.14062,304.14062 C372.60938,303.67187 372.84375,303.08594 372.84375,302.38281 C372.84375,301.67968 372.60938,301.09375 372.14062,300.625 L361.51562,290 L372.29688,279.29688 C372.76563,278.77604 373,278.17709 373,277.5 C373,276.82291 372.76563,276.22396 372.29688,275.70312 Z M358,250 C352.47914,250 347.28388,251.04166 342.41406,253.125 C337.54425,255.20834 333.2995,258.05988 329.67969,261.67969 C326.059878,265.2995 323.208344,269.54425 321.125,274.41406 C319.041656,279.28388 318,284.47914 318,290 C318,295.52086 319.041656,300.71612 321.125,305.58594 C323.208344,310.45575 326.059878,314.7005 329.67969,318.32031 C333.2995,321.940122 337.54425,324.791656 342.41406,326.875 C347.28388,328.958344 352.47914,330 358,330 C363.52086,330 368.71612,328.958344 373.58594,326.875 C378.45575,324.791656 382.7005,321.940122 386.32031,318.32031 C389.94012,314.7005 392.79166,310.45575 394.875,305.58594 C396.95834,300.71612 398,295.52086 398,290 C398,284.47914 396.95834,279.28388 394.875,274.41406 C392.79166,269.54425 389.94012,265.2995 386.32031,261.67969 C382.7005,258.05988 378.45575,255.20834 373.58594,253.125 C368.71612,251.04166 363.52086,250 358,250 Z M358,325 C353.15623,325 348.612,324.088551 344.36719,322.265625 C340.12237,320.442699 336.41147,317.94272 333.23438,314.76562 C330.05728,311.58853 327.557301,307.87763 325.734375,303.63281 C323.911449,299.388 323,294.84377 323,290 C323,285.15623 323.911449,280.612 325.734375,276.36719 C327.557301,272.12237 330.05728,268.41147 333.23438,265.23438 C336.41147,262.05728 340.12237,259.5573 344.36719,257.73438 C348.612,255.91145 353.15623,255 358,255 C362.84377,255 367.388,255.91145 371.63281,257.73438 C375.87763,259.5573 379.58853,262.05728 382.76562,265.23438 C385.94272,268.41147 388.4427,272.12237 390.26562,276.36719 C392.08855,280.612 393,285.15623 393,290 C393,294.84377 392.08855,299.388 390.26562,303.63281 C388.4427,307.87763 385.94272,311.58853 382.76562,314.76562 C379.58853,317.94272 375.87763,320.442699 371.63281,322.265625 C367.388,324.088551 362.84377,325 358,325 Z" id="Page-1-Copy"></path>
        </g>
    </g>
</svg>