<?xml version="1.0" encoding="UTF-8"?>
<svg width="56px" height="56px" viewBox="0 0 56 56" version="1.1" xmlns="http://www.w3.org/2000/svg" xmlns:xlink="http://www.w3.org/1999/xlink">
    <!-- Generator: Sketch 43.1 (39012) - http://www.bohemiancoding.com/sketch -->
    <title>Page 1 Copy 2</title>
    <desc>Created with Sketch.</desc>
    <defs></defs>
    <g id="Page-1" stroke="none" stroke-width="1" fill="none" fill-rule="evenodd">
        <g id="icon点击" transform="translate(-648.000000, -173.000000)" fill="#000000">
            <path d="M683.929684,186.070316 C683.601559,185.705728 683.191408,185.523434 682.699217,185.523434 C682.207026,185.523434 681.796875,185.705728 681.46875,186.070316 L668.070316,199.46875 C667.851559,199.6875 667.705728,199.933592 667.632816,200.207033 C667.559897,200.480467 667.559897,200.744787 667.632816,201 C667.559897,201.255213 667.559897,201.519533 667.632816,201.792967 C667.705728,202.066408 667.851559,202.3125 668.070316,202.53125 L681.46875,215.929684 C681.796875,216.294272 682.207026,216.476566 682.699217,216.476566 C683.191408,216.476566 683.601559,216.294272 683.929684,215.929684 C684.294272,215.601559 684.476566,215.191408 684.476566,214.699217 C684.476566,214.207026 684.294272,213.796875 683.929684,213.46875 L671.460934,201 L683.929684,188.53125 C684.294272,188.203125 684.476566,187.792974 684.476566,187.300783 C684.476566,186.808592 684.294272,186.398441 683.929684,186.070316 Z M676,173 C672.135398,173 668.498716,173.729162 665.089842,175.1875 C661.680975,176.645838 658.70965,178.641916 656.175783,181.175783 C653.641915,183.70965 651.645841,186.680975 650.1875,190.089842 C648.729159,193.498716 648,197.135398 648,201 C648,204.864602 648.729159,208.501284 650.1875,211.910158 C651.645841,215.319025 653.641915,218.29035 656.175783,220.824217 C658.70965,223.358085 661.680975,225.354159 665.089842,226.8125 C668.498716,228.270841 672.135398,229 676,229 C679.864602,229 683.501284,228.270841 686.910158,226.8125 C690.319025,225.354159 693.29035,223.358085 695.824217,220.824217 C698.358084,218.29035 700.354162,215.319025 701.8125,211.910158 C703.270838,208.501284 704,204.864602 704,201 C704,197.135398 703.270838,193.498716 701.8125,190.089842 C700.354162,186.680975 698.358084,183.70965 695.824217,181.175783 C693.29035,178.641916 690.319025,176.645838 686.910158,175.1875 C683.501284,173.729162 679.864602,173 676,173 Z M676,225.5 C672.609361,225.5 669.4284,224.861986 666.457033,223.585938 C663.485659,222.309889 660.888029,220.559904 658.664066,218.335934 C656.440096,216.111971 654.690111,213.514341 653.414062,210.542967 C652.138014,207.5716 651.5,204.390639 651.5,201 C651.5,197.609361 652.138014,194.4284 653.414062,191.457033 C654.690111,188.485659 656.440096,185.888029 658.664066,183.664066 C660.888029,181.440096 663.485659,179.69011 666.457033,178.414066 C669.4284,177.138015 672.609361,176.5 676,176.5 C679.390639,176.5 682.5716,177.138015 685.542967,178.414066 C688.514341,179.69011 691.111971,181.440096 693.335934,183.664066 C695.559904,185.888029 697.30989,188.485659 698.585934,191.457033 C699.861985,194.4284 700.5,197.609361 700.5,201 C700.5,204.390639 699.861985,207.5716 698.585934,210.542967 C697.30989,213.514341 695.559904,216.111971 693.335934,218.335934 C691.111971,220.559904 688.514341,222.309889 685.542967,223.585938 C682.5716,224.861986 679.390639,225.5 676,225.5 Z" id="Page-1-Copy-2"></path>
        </g>
    </g>
</svg>