<?xml version="1.0" encoding="UTF-8"?>
<svg width="56px" height="56px" viewBox="0 0 56 56" version="1.1" xmlns="http://www.w3.org/2000/svg" xmlns:xlink="http://www.w3.org/1999/xlink">
    <!-- Generator: Sketch 43.1 (39012) - http://www.bohemiancoding.com/sketch -->
    <title>Page 1 Copy 5</title>
    <desc>Created with Sketch.</desc>
    <defs></defs>
    <g id="Page-1" stroke="none" stroke-width="1" fill="none" fill-rule="evenodd">
        <g id="icon点击" transform="translate(-887.000000, -173.000000)" fill="#000000">
            <path d="M922.929684,186.070316 C922.601559,185.705728 922.191408,185.523434 921.699217,185.523434 C921.207026,185.523434 920.796875,185.705728 920.46875,186.070316 L907.070316,199.46875 C906.851559,199.6875 906.705728,199.933592 906.632816,200.207033 C906.559897,200.480467 906.559897,200.744787 906.632816,201 C906.559897,201.255213 906.559897,201.519533 906.632816,201.792967 C906.705728,202.066408 906.851559,202.3125 907.070316,202.53125 L920.46875,215.929684 C920.796875,216.294272 921.207026,216.476566 921.699217,216.476566 C922.191408,216.476566 922.601559,216.294272 922.929684,215.929684 C923.294272,215.601559 923.476566,215.191408 923.476566,214.699217 C923.476566,214.207026 923.294272,213.796875 922.929684,213.46875 L910.460934,201 L922.929684,188.53125 C923.294272,188.203125 923.476566,187.792974 923.476566,187.300783 C923.476566,186.808592 923.294272,186.398441 922.929684,186.070316 Z M915,173 C911.135398,173 907.498716,173.729162 904.089842,175.1875 C900.680975,176.645838 897.70965,178.641916 895.175783,181.175783 C892.641915,183.70965 890.645841,186.680975 889.1875,190.089842 C887.729159,193.498716 887,197.135398 887,201 C887,204.864602 887.729159,208.501284 889.1875,211.910158 C890.645841,215.319025 892.641915,218.29035 895.175783,220.824217 C897.70965,223.358085 900.680975,225.354159 904.089842,226.8125 C907.498716,228.270841 911.135398,229 915,229 C918.864602,229 922.501284,228.270841 925.910158,226.8125 C929.319025,225.354159 932.29035,223.358085 934.824217,220.824217 C937.358084,218.29035 939.354162,215.319025 940.8125,211.910158 C942.270838,208.501284 943,204.864602 943,201 C943,197.135398 942.270838,193.498716 940.8125,190.089842 C939.354162,186.680975 937.358084,183.70965 934.824217,181.175783 C932.29035,178.641916 929.319025,176.645838 925.910158,175.1875 C922.501284,173.729162 918.864602,173 915,173 Z M915,225.5 C911.609361,225.5 908.4284,224.861986 905.457033,223.585938 C902.485659,222.309889 899.888029,220.559904 897.664066,218.335934 C895.440096,216.111971 893.690111,213.514341 892.414062,210.542967 C891.138014,207.5716 890.5,204.390639 890.5,201 C890.5,197.609361 891.138014,194.4284 892.414062,191.457033 C893.690111,188.485659 895.440096,185.888029 897.664066,183.664066 C899.888029,181.440096 902.485659,179.69011 905.457033,178.414066 C908.4284,177.138015 911.609361,176.5 915,176.5 C918.390639,176.5 921.5716,177.138015 924.542967,178.414066 C927.514341,179.69011 930.111971,181.440096 932.335934,183.664066 C934.559904,185.888029 936.30989,188.485659 937.585934,191.457033 C938.861985,194.4284 939.5,197.609361 939.5,201 C939.5,204.390639 938.861985,207.5716 937.585934,210.542967 C936.30989,213.514341 934.559904,216.111971 932.335934,218.335934 C930.111971,220.559904 927.514341,222.309889 924.542967,223.585938 C921.5716,224.861986 918.390639,225.5 915,225.5 Z" id="Page-1-Copy-5" transform="translate(915.000000, 201.000000) scale(-1, 1) translate(-915.000000, -201.000000) "></path>
        </g>
    </g>
</svg>